<?xml version="1.0" standalone="no"?><!DOCTYPE svg PUBLIC "-//W3C//DTD SVG 1.1//EN" "http://www.w3.org/Graphics/SVG/1.1/DTD/svg11.dtd"><svg t="1661440999221" class="icon" viewBox="0 0 1024 1024" version="1.1" xmlns="http://www.w3.org/2000/svg" p-id="11230" xmlns:xlink="http://www.w3.org/1999/xlink" width="200" height="200"><path d="M863.286375 564.350417l109.00951-108.71652V211.917933L780.732138 20.802289H539.360094l-13.081141 13.046672L103.40823 455.340907l0.137878 0.137878L0 558.749137l433.401128 434.331802 151.596465-151.200067c27.230834 93.067407 113.197543 161.299604 214.934007 161.299604 123.538366 0 224.051166-100.5128 224.051165-224.051165 0.017235-101.529647-67.921973-187.375713-160.69639-214.778894zM766.479037 55.271699l171.347438 170.951039v215.089119l-115.300177 114.903779c-1.620062-0.172347-3.291829-0.120643-4.929126-0.258521l-3.826104-0.327459-2.998839-0.258521a193.959371 193.959371 0 0 0-10.823395-0.327459c-123.538366 0-224.051166 100.5128-224.051165 224.051165 0 3.429706 0.103408 6.911117 0.310225 10.530405 0.068939 1.240899 0.224051 2.585206 0.310224 3.860574l0.275756 3.446941c0.103408 1.309838 0.068939 2.671379 0.206816 3.981217l-40.122393 40.00175-384.575209-385.368004L553.613195 55.271699h212.865842zM48.756981 558.818076l79.141765-78.934949 384.695851 385.523117-79.141765 78.934949L48.756981 558.818076z m751.191853 409.89299c-95.635378 0-174.742674-71.248271-187.565294-163.402238l-0.051705-0.344694c-0.379164-2.774788-0.568745-5.170412-0.8445-7.721148-0.137878-1.258133-0.310225-2.619675-0.413633-3.826105-0.361929-4.739544-0.723858-9.461853-0.723858-14.28757 0-104.528486 85.053269-189.581755 189.581756-189.581756 4.842952 0 9.599731 0.361929 14.356509 0.723858l2.395624 0.258521c3.102247 0.310225 6.135555 0.58598 9.582496 1.068551l0.430868 0.051704c91.878213 13.081141 162.816259 92.05056 162.816258 187.461887 0.017235 104.562955-85.036035 189.59899-189.564521 189.59899z" p-id="11231"></path><path d="M903.357065 761.894606h-86.173525v-86.173525a17.234705 17.234705 0 1 0-34.469411 0v86.173525h-86.173525a17.234705 17.234705 0 1 0 0 34.46941h86.173525v86.173525a17.234705 17.234705 0 1 0 34.469411 0v-86.173525h86.173525a17.234705 17.234705 0 1 0 0-34.46941zM731.268535 311.551763c37.39931 0 67.818564-30.419254 67.818564-67.818564s-30.419254-67.835799-67.818564-67.835799-67.835799 30.436489-67.835799 67.835799 30.436489 67.818564 67.835799 67.818564z m0-101.167719c18.38943 0 33.349154 14.959724 33.349154 33.366389a33.400858 33.400858 0 0 1-33.349154 33.349155 33.400858 33.400858 0 0 1-33.366389-33.349155c0-18.406665 14.959724-33.366389 33.366389-33.366389z" p-id="11232"></path></svg>