<?xml version="1.0" standalone="no"?><!DOCTYPE svg PUBLIC "-//W3C//DTD SVG 1.1//EN" "http://www.w3.org/Graphics/SVG/1.1/DTD/svg11.dtd"><svg t="1661785533642" class="icon" viewBox="0 0 1024 1024" version="1.1" xmlns="http://www.w3.org/2000/svg" p-id="701" xmlns:xlink="http://www.w3.org/1999/xlink" width="200" height="200"><path d="M781.956 523.995l-510.63 1e-8 0-25.58200001 510.63 0 0 25.582z" p-id="702"></path><path d="M249.134 508.754l18.11-18.111 296.49 296.49-18.10999999 18.11-296.49000001-296.489z" p-id="703"></path><path d="M249.995 508.142L544.971 213.166l19.495 19.496-294.975 294.975-19.496-19.495z" p-id="704"></path><path d="M686.933 99.756c53.34 22.562 101.243 54.857 142.375 95.99099999 41.133 41.134 73.43 89.036 95.99000001 142.37700001C948.66 393.356 960.50500001 452.018 960.505 512.48c0 60.46499999-11.844 119.13-35.205 174.36-22.561 53.34-54.857 101.243-95.99 142.376s-89.035 73.428-142.377 95.99c-55.232 23.361-113.895 35.205-174.36 35.20499999s-119.128-11.84400001-174.359-35.20499999c-53.341-22.56-101.243-54.856-142.376-95.99s-73.429-89.035-95.99-142.376c-23.36-55.232-35.204-113.895-35.204-174.36 0-60.463 11.844-119.126 35.204-174.357 22.56100001-53.341 54.856-101.243 95.99-142.377 41.133-41.133 89.035-73.43 142.37599999-95.991 55.231-23.361 113.894-35.207 174.36000001-35.207s119.128 11.846 174.36 35.207zM934.908 512.481c0-232.877-189.459-422.335-422.335-422.33500001-232.875 0-422.335 189.46-422.335 422.33500001S279.697 934.817 512.573 934.81700001c232.87600001 0 422.335-189.46 422.335-422.33600001z" p-id="705"></path></svg>